<svg xmlns="http://www.w3.org/2000/svg" viewBox="0 0 256 256" role="img" aria-label="EllipSDF icon">
  <defs>
    <linearGradient id="bg" x1="32" y1="24" x2="224" y2="232" gradientUnits="userSpaceOnUse">
      <stop offset="0" stop-color="#171b25"/>
      <stop offset="1" stop-color="#252b38"/>
    </linearGradient>
    <linearGradient id="ellipsoid" x1="132" y1="74" x2="218" y2="182" gradientUnits="userSpaceOnUse">
      <stop offset="0" stop-color="#ffe66b"/>
      <stop offset="0.58" stop-color="#ffc22e"/>
      <stop offset="1" stop-color="#ff9f1a"/>
    </linearGradient>
    <linearGradient id="mesh" x1="37" y1="71" x2="137" y2="178" gradientUnits="userSpaceOnUse">
      <stop offset="0" stop-color="#2bd3ff"/>
      <stop offset="1" stop-color="#396cff"/>
    </linearGradient>
    <filter id="softShadow" x="-20%" y="-20%" width="140%" height="140%">
      <feDropShadow dx="0" dy="10" stdDeviation="8" flood-color="#000000" flood-opacity="0.30"/>
    </filter>
  </defs>

  <rect x="16" y="16" width="224" height="224" rx="48" fill="url(#bg)"/>

  <g filter="url(#softShadow)">
    <path d="M57 82 L113 58 L138 104 L116 166 L54 184 L36 128 Z"
          fill="none" stroke="url(#mesh)" stroke-width="11" stroke-linejoin="round"/>
    <path d="M57 82 L116 166 M113 58 L54 184 M36 128 L138 104 M57 82 L138 104 M54 184 L116 166"
          fill="none" stroke="#7de7ff" stroke-width="5.5" stroke-linecap="round" opacity="0.80"/>
    <circle cx="57" cy="82" r="8" fill="#76eaff"/>
    <circle cx="113" cy="58" r="7" fill="#76eaff"/>
    <circle cx="138" cy="104" r="8" fill="#76eaff"/>
    <circle cx="116" cy="166" r="8" fill="#76eaff"/>
    <circle cx="54" cy="184" r="7" fill="#76eaff"/>
    <circle cx="36" cy="128" r="7" fill="#76eaff"/>

    <ellipse cx="166" cy="126" rx="54" ry="82" transform="rotate(25 166 126)"
             fill="url(#ellipsoid)" stroke="#fff2a6" stroke-width="6"/>
    <ellipse cx="166" cy="126" rx="22" ry="78" transform="rotate(25 166 126)"
             fill="none" stroke="#fff4b8" stroke-width="4" opacity="0.65"/>
    <path d="M117 99 C145 80 188 84 217 107 M113 130 C149 111 194 117 223 144 M122 160 C155 146 194 150 215 173"
          fill="none" stroke="#fff4b8" stroke-width="4" stroke-linecap="round" opacity="0.48"/>
  </g>
</svg>
